<?xml version="1.0" standalone="no"?>
<!DOCTYPE svg PUBLIC "-//W3C//DTD SVG 20010904//EN"
 "http://www.w3.org/TR/2001/REC-SVG-20010904/DTD/svg10.dtd">
<svg version="1.0" xmlns="http://www.w3.org/2000/svg"
 width="774.000000pt" height="749.000000pt" viewBox="0 0 774.000000 749.000000"
 preserveAspectRatio="xMidYMid meet">

<g transform="translate(0.000000,749.000000) scale(0.100000,-0.100000)"
fill="#000000" stroke="none">
<path d="M5525 6544 c-473 -520 -868 -952 -877 -961 -16 -14 -21 -14 -60 2
-261 107 -619 195 -958 237 -138 17 -593 17 -730 0 -419 -51 -756 -152 -1103
-329 -936 -478 -1549 -1406 -1763 -2667 -27 -161 -27 -203 -1 -78 27 124 94
336 154 487 209 529 543 952 973 1235 196 129 492 256 720 309 199 46 296 56
540 56 311 0 501 -31 777 -126 191 -66 448 -190 448 -216 0 -8 -1679 -1857
-2094 -2305 l-53 -58 450 0 449 0 883 968 c485 532 887 967 893 967 20 0 149
-159 239 -294 268 -405 412 -875 434 -1419 4 -86 3 -214 -1 -284 l-7 -128
-475 -2 -475 -3 958 -967 959 -968 963 963 c529 529 962 965 962 969 0 5 -216
8 -480 8 l-480 0 7 43 c5 23 8 186 8 362 0 334 -9 443 -56 695 -161 854 -631
1589 -1352 2113 -67 49 -123 92 -125 96 -1 4 454 508 1013 1120 558 612 1015
1115 1015 1117 0 2 -201 4 -447 3 l-448 0 -860 -945z m-2069 -964 c412 -32
780 -126 1147 -291 151 -68 289 -146 452 -254 202 -135 288 -207 485 -404 254
-254 414 -472 576 -786 288 -556 434 -1197 434 -1911 l0 -164 376 0 c235 0
374 -4 372 -10 -3 -10 -1301 -1341 -1409 -1445 -34 -33 -58 -53 -53 -45 4 8
163 265 352 570 190 305 347 561 349 568 4 9 -48 12 -240 12 l-245 0 -5 493
c-5 532 -13 635 -73 918 -159 762 -541 1400 -1119 1870 -791 644 -1857 866
-2795 582 -689 -208 -1263 -689 -1631 -1366 -110 -202 -224 -479 -285 -689
-15 -54 -29 -96 -32 -94 -2 3 13 62 33 133 122 427 325 825 593 1163 93 117
347 372 462 464 227 181 537 359 815 469 444 175 968 254 1441 217z m-3349
-2482 c-3 -8 -6 -5 -6 6 -1 11 2 17 5 13 3 -3 4 -12 1 -19z m-10 -40 c-3 -8
-6 -5 -6 6 -1 11 2 17 5 13 3 -3 4 -12 1 -19z"/>
</g>
</svg>
